<?xml version="1.0" encoding="UTF-8" standalone="no"?>
<!-- Created with Inkscape (http://www.inkscape.org/) -->

<svg
   xmlns:ns0="http://www.iki.fi/pav/software/textext/"
   xmlns:dc="http://purl.org/dc/elements/1.1/"
   xmlns:cc="http://creativecommons.org/ns#"
   xmlns:rdf="http://www.w3.org/1999/02/22-rdf-syntax-ns#"
   xmlns:svg="http://www.w3.org/2000/svg"
   xmlns="http://www.w3.org/2000/svg"
   xmlns:xlink="http://www.w3.org/1999/xlink"
   xmlns:sodipodi="http://sodipodi.sourceforge.net/DTD/sodipodi-0.dtd"
   xmlns:inkscape="http://www.inkscape.org/namespaces/inkscape"
   width="123.98841mm"
   height="80.258987mm"
   viewBox="0 0 439.32904 284.38224"
   id="svg2"
   version="1.1"
   inkscape:version="0.92.1 r"
   sodipodi:docname="analogical_dissimilarity_pres.svg">
  <sodipodi:namedview
     id="base"
     pagecolor="#ffffff"
     bordercolor="#666666"
     borderopacity="1.0"
     inkscape:pageopacity="0.0"
     inkscape:pageshadow="2"
     inkscape:zoom="0.7"
     inkscape:cx="65.201241"
     inkscape:cy="132.1511"
     inkscape:document-units="px"
     inkscape:current-layer="layer1"
     showgrid="false"
     inkscape:window-width="1364"
     inkscape:window-height="746"
     inkscape:window-x="0"
     inkscape:window-y="20"
     inkscape:window-maximized="1"
     fit-margin-top="0"
     fit-margin-left="0"
     fit-margin-right="0"
     fit-margin-bottom="0" />
  <defs
     id="defs4">
    <marker
       inkscape:stockid="Arrow1Lstart"
       orient="auto"
       refY="0"
       refX="0"
       id="Arrow1Lstart"
       style="overflow:visible"
       inkscape:isstock="true">
      <path
         inkscape:connector-curvature="0"
         id="path4142"
         d="M 0,0 5,-5 -12.5,0 5,5 Z"
         style="fill:#000000;fill-opacity:1;fill-rule:evenodd;stroke:#000000;stroke-width:1pt;stroke-opacity:1"
         transform="matrix(0.8,0,0,0.8,10,0)" />
    </marker>
    <marker
       inkscape:isstock="true"
       style="overflow:visible"
       id="Arrow1Lend"
       refX="0"
       refY="0"
       orient="auto"
       inkscape:stockid="Arrow1Lend">
      <path
         inkscape:connector-curvature="0"
         transform="matrix(-0.8,0,0,-0.8,-10,0)"
         style="fill:#000000;fill-opacity:1;fill-rule:evenodd;stroke:#000000;stroke-width:1pt;stroke-opacity:1"
         d="M 0,0 5,-5 -12.5,0 5,5 Z"
         id="path4145" />
    </marker>
    <marker
       inkscape:isstock="true"
       style="overflow:visible"
       id="Arrow1Lend-2"
       refX="0"
       refY="0"
       orient="auto"
       inkscape:stockid="Arrow1Lend">
      <path
         transform="matrix(-0.8,0,0,-0.8,-10,0)"
         style="fill:#000000;fill-opacity:1;fill-rule:evenodd;stroke:#000000;stroke-width:1pt;stroke-opacity:1"
         d="M 0,0 5,-5 -12.5,0 5,5 Z"
         id="path4145-0"
         inkscape:connector-curvature="0" />
    </marker>
    <marker
       inkscape:isstock="true"
       style="overflow:visible"
       id="Arrow1Lend-8"
       refX="0"
       refY="0"
       orient="auto"
       inkscape:stockid="Arrow1Lend">
      <path
         transform="matrix(-0.8,0,0,-0.8,-10,0)"
         style="fill:#000000;fill-opacity:1;fill-rule:evenodd;stroke:#000000;stroke-width:1pt;stroke-opacity:1"
         d="M 0,0 5,-5 -12.5,0 5,5 Z"
         id="path4145-9"
         inkscape:connector-curvature="0" />
    </marker>
    <marker
       inkscape:isstock="true"
       style="overflow:visible"
       id="Arrow1Lend-8-6"
       refX="0"
       refY="0"
       orient="auto"
       inkscape:stockid="Arrow1Lend">
      <path
         transform="matrix(-0.8,0,0,-0.8,-10,0)"
         style="fill:#000000;fill-opacity:1;fill-rule:evenodd;stroke:#000000;stroke-width:1pt;stroke-opacity:1"
         d="M 0,0 5,-5 -12.5,0 5,5 Z"
         id="path4145-9-6"
         inkscape:connector-curvature="0" />
    </marker>
    <marker
       inkscape:isstock="true"
       style="overflow:visible"
       id="Arrow1Lend-87"
       refX="0"
       refY="0"
       orient="auto"
       inkscape:stockid="Arrow1Lend">
      <path
         inkscape:connector-curvature="0"
         transform="matrix(-0.8,0,0,-0.8,-10,0)"
         style="fill:#000000;fill-opacity:1;fill-rule:evenodd;stroke:#000000;stroke-width:1pt;stroke-opacity:1"
         d="M 0,0 5,-5 -12.5,0 5,5 Z"
         id="path4145-1" />
    </marker>
    <marker
       inkscape:stockid="Arrow1Lstart"
       orient="auto"
       refY="0"
       refX="0"
       id="Arrow1Lstart-2"
       style="overflow:visible"
       inkscape:isstock="true">
      <path
         inkscape:connector-curvature="0"
         id="path4142-7"
         d="M 0,0 5,-5 -12.5,0 5,5 Z"
         style="fill:#000000;fill-opacity:1;fill-rule:evenodd;stroke:#000000;stroke-width:1pt;stroke-opacity:1"
         transform="matrix(0.8,0,0,0.8,10,0)" />
    </marker>
  </defs>
  <metadata
     id="metadata7">
    <rdf:RDF>
      <cc:Work
         rdf:about="">
        <dc:format>image/svg+xml</dc:format>
        <dc:type
           rdf:resource="http://purl.org/dc/dcmitype/StillImage" />
        <dc:title />
      </cc:Work>
    </rdf:RDF>
  </metadata>
  <g
     transform="translate(-174.24475,-115.05588)"
     id="layer1"
     inkscape:groupmode="layer"
     inkscape:label="Calque 1">
    <rect
       style="opacity:1;fill:none;fill-opacity:1;stroke:#000000;stroke-width:2.16603041;stroke-linecap:round;stroke-linejoin:round;stroke-miterlimit:4;stroke-dasharray:none;stroke-dashoffset:0;stroke-opacity:1"
       id="rect8530"
       width="110.64246"
       height="204.12102"
       x="-542.68243"
       y="-212.6937"
       transform="matrix(-0.92114582,-0.38921764,0.81323618,-0.58193377,0,0)" />
    <path
       style="fill:none;fill-rule:evenodd;stroke:#000000;stroke-width:1.71874666;stroke-linecap:butt;stroke-linejoin:miter;stroke-miterlimit:4;stroke-dasharray:none;stroke-opacity:1;marker-start:url(#Arrow1Lstart)"
       d="m 182.85714,118.18405 0,274.17813"
       id="path8540"
       inkscape:connector-curvature="0" />
    <path
       style="fill:none;fill-rule:evenodd;stroke:#000000;stroke-width:1.58846521;stroke-linecap:butt;stroke-linejoin:miter;stroke-miterlimit:4;stroke-dasharray:none;stroke-opacity:1;marker-start:url(#Arrow1Lstart-2)"
       d="m 571.93289,391.47856 -389.95033,0"
       id="path8540-2"
       inkscape:connector-curvature="0" />
    <path
       style="opacity:1;fill:#000000;fill-opacity:1;stroke:#000000;stroke-width:1.79999995;stroke-linecap:round;stroke-linejoin:round;stroke-miterlimit:4;stroke-dasharray:none;stroke-dashoffset:0;stroke-opacity:1"
       id="path11218-7-6"
       sodipodi:type="arc"
       sodipodi:cx="388.90875"
       sodipodi:cy="174.53964"
       sodipodi:rx="5.0507627"
       sodipodi:ry="5.0507627"
       sodipodi:start="2.5175502"
       sodipodi:end="2.5169219"
       sodipodi:open="true"
       d="m 384.80994,177.49091 a 5.0507627,5.0507627 0 0 1 1.1469,-7.04961 5.0507627,5.0507627 0 0 1 7.0498,1.14579 5.0507627,5.0507627 0 0 1 -1.14469,7.04997 5.0507627,5.0507627 0 0 1 -7.05015,-1.14358" />
    <path
       style="opacity:1;fill:#000000;fill-opacity:1;stroke:#000000;stroke-width:1.79999995;stroke-linecap:round;stroke-linejoin:round;stroke-miterlimit:4;stroke-dasharray:none;stroke-dashoffset:0;stroke-opacity:1"
       id="path11218-7-3"
       sodipodi:type="arc"
       sodipodi:cx="492.41071"
       sodipodi:cy="216.20149"
       sodipodi:rx="5.0507627"
       sodipodi:ry="5.0507627"
       sodipodi:start="2.5175502"
       sodipodi:end="2.5169219"
       sodipodi:open="true"
       d="m 488.3119,219.15276 a 5.0507627,5.0507627 0 0 1 1.1469,-7.04961 5.0507627,5.0507627 0 0 1 7.04979,1.14579 5.0507627,5.0507627 0 0 1 -1.14469,7.04997 5.0507627,5.0507627 0 0 1 -7.05015,-1.14358" />
    <path
       style="opacity:1;fill:#000000;fill-opacity:1;stroke:#000000;stroke-width:1.79999995;stroke-linecap:round;stroke-linejoin:round;stroke-miterlimit:4;stroke-dasharray:none;stroke-dashoffset:0;stroke-opacity:1"
       id="path11218-7-1"
       sodipodi:type="arc"
       sodipodi:cx="326.84747"
       sodipodi:cy="334.77509"
       sodipodi:rx="5.0507627"
       sodipodi:ry="5.0507627"
       sodipodi:start="2.5175502"
       sodipodi:end="2.5169219"
       sodipodi:open="true"
       d="m 322.74866,337.72635 a 5.0507627,5.0507627 0 0 1 1.14691,-7.04961 5.0507627,5.0507627 0 0 1 7.04979,1.14579 5.0507627,5.0507627 0 0 1 -1.14469,7.04997 5.0507627,5.0507627 0 0 1 -7.05015,-1.14358" />
    <path
       style="opacity:1;fill:#000000;fill-opacity:1;stroke:#000000;stroke-width:1.79999995;stroke-linecap:round;stroke-linejoin:round;stroke-miterlimit:4;stroke-dasharray:none;stroke-dashoffset:0;stroke-opacity:1"
       id="path11218-7-7"
       sodipodi:type="arc"
       sodipodi:cx="225.76909"
       sodipodi:cy="291.71735"
       sodipodi:rx="5.0507627"
       sodipodi:ry="5.0507627"
       sodipodi:start="2.5175502"
       sodipodi:end="2.5169219"
       sodipodi:open="true"
       d="m 221.67028,294.66861 a 5.0507627,5.0507627 0 0 1 1.1469,-7.04961 5.0507627,5.0507627 0 0 1 7.04979,1.14579 5.0507627,5.0507627 0 0 1 -1.14469,7.04998 5.0507627,5.0507627 0 0 1 -7.05015,-1.14359" />
    <g
       ns0:text="$\\mathbf{b}$\n"
       ns0:preamble=""
       transform="matrix(4.6781047,0,0,4.6781047,-682.0268,-463.4465)"
       id="g367">
      <defs
         id="defs360">
        <g
           id="g358">
          <symbol
             style="overflow:visible"
             overflow="visible"
             id="textext-722b0e9d-0">
            <path
               inkscape:connector-curvature="0"
               style="stroke:none"
               d=""
               id="path352" />
          </symbol>
          <symbol
             style="overflow:visible"
             overflow="visible"
             id="textext-722b0e9d-1">
            <path
               inkscape:connector-curvature="0"
               style="stroke:none"
               d="m 2.140625,-4 0,-2.921875 -1.765625,0.078125 0,0.46875 c 0.609375,0 0.6875,0 0.6875,0.390625 L 1.0625,0 1.53125,0 2.015625,-0.5625 c 0.078125,0.078125 0.5625,0.625 1.453125,0.625 1.484375,0 2.515625,-0.90625 2.515625,-2.28125 0,-1.328125 -0.9375,-2.265625 -2.390625,-2.265625 C 2.875,-4.484375 2.375,-4.203125 2.140625,-4 Z m 0.046875,3.015625 0,-2.5 C 2.46875,-3.84375 2.9375,-4.125 3.484375,-4.125 c 1.21875,0 1.21875,1.203125 1.21875,1.90625 0,0.46875 0,1.015625 -0.25,1.40625 -0.296875,0.40625 -0.75,0.515625 -1.078125,0.515625 -0.6875,0 -1.078125,-0.546875 -1.1875,-0.6875 z m 0,0"
               id="path355" />
          </symbol>
        </g>
      </defs>
      <g
         id="textext-722b0e9d-2">
        <g
           style="fill:#000000;fill-opacity:1"
           id="g364">
          <use
             height="100%"
             width="100%"
             xlink:href="#textext-722b0e9d-1"
             x="223.43201"
             y="134.765"
             id="use362" />
        </g>
      </g>
    </g>
    <g
       id="g504"
       transform="matrix(4.6781047,0,0,4.6781047,-858.22663,-328.36061)"
       ns0:preamble=""
       ns0:text="$\\mathbf{a}$\n">
      <defs
         id="defs497">
        <g
           id="g495">
          <symbol
             style="overflow:visible"
             id="textext-7724378f-0"
             overflow="visible">
            <path
               inkscape:connector-curvature="0"
               id="path489"
               d=""
               style="stroke:none" />
          </symbol>
          <symbol
             style="overflow:visible"
             id="textext-7724378f-1"
             overflow="visible">
            <path
               inkscape:connector-curvature="0"
               id="path492"
               d="m 3.734375,-0.765625 c 0,0.3125 0,0.765625 1.03125,0.765625 L 5.25,0 C 5.4375,0 5.5625,0 5.5625,-0.234375 5.5625,-0.46875 5.4375,-0.46875 5.296875,-0.46875 4.6875,-0.484375 4.6875,-0.609375 4.6875,-0.84375 l 0,-2.140625 c 0,-0.890625 -0.703125,-1.53125 -2.1875,-1.53125 -0.5625,0 -1.78125,0.046875 -1.78125,0.921875 0,0.4375 0.34375,0.625 0.609375,0.625 0.3125,0 0.640625,-0.21875 0.640625,-0.625 0,-0.296875 -0.1875,-0.46875 -0.21875,-0.5 0.28125,-0.046875 0.59375,-0.0625 0.71875,-0.0625 0.734375,0 1.09375,0.421875 1.09375,1.171875 l 0,0.34375 c -0.71875,0.03125 -3.25,0.125 -3.25,1.5625 0,0.953125 1.25,1.140625 1.9375,1.140625 0.796875,0 1.265625,-0.40625 1.484375,-0.828125 z m -0.171875,-1.5625 0,0.9375 c 0,0.96875 -0.921875,1.09375 -1.171875,1.09375 -0.5,0 -0.90625,-0.34375 -0.90625,-0.796875 0,-1.0625 1.578125,-1.203125 2.078125,-1.234375 z m 0,0"
               style="stroke:none" />
          </symbol>
        </g>
      </defs>
      <g
         id="textext-7724378f-2">
        <g
           id="g501"
           style="fill:#000000;fill-opacity:1">
          <use
             height="100%"
             width="100%"
             id="use499"
             y="134.765"
             x="223.43201"
             xlink:href="#textext-7724378f-1" />
        </g>
      </g>
    </g>
    <g
       ns0:text="$\\mathbf{c}$\n"
       ns0:preamble=""
       transform="matrix(4.6781047,0,0,4.6781047,-720.4126,-260.40583)"
       id="g641">
      <defs
         id="defs634">
        <g
           id="g632">
          <symbol
             style="overflow:visible"
             overflow="visible"
             id="textext-b3302d2b-0">
            <path
               inkscape:connector-curvature="0"
               style="stroke:none"
               d=""
               id="path626" />
          </symbol>
          <symbol
             style="overflow:visible"
             overflow="visible"
             id="textext-b3302d2b-1">
            <path
               inkscape:connector-curvature="0"
               style="stroke:none"
               d="m 3.59375,-4.0625 c -0.1875,0.171875 -0.203125,0.375 -0.203125,0.46875 0,0.4375 0.34375,0.625 0.609375,0.625 0.3125,0 0.640625,-0.21875 0.640625,-0.625 0,-0.859375 -1.15625,-0.921875 -1.734375,-0.921875 -1.796875,0 -2.53125,1.140625 -2.53125,2.296875 0,1.328125 0.9375,2.28125 2.46875,2.28125 1.625,0 1.921875,-1.15625 1.921875,-1.234375 C 4.765625,-1.3125 4.625,-1.3125 4.53125,-1.3125 c -0.1875,0 -0.1875,0.03125 -0.25,0.15625 -0.25,0.625 -0.734375,0.8125 -1.234375,0.8125 -1.390625,0 -1.390625,-1.453125 -1.390625,-1.921875 0,-0.5625 0,-1.84375 1.28125,-1.84375 0.359375,0 0.515625,0.015625 0.65625,0.046875 z m 0,0"
               id="path629" />
          </symbol>
        </g>
      </defs>
      <g
         id="textext-b3302d2b-2">
        <g
           style="fill:#000000;fill-opacity:1"
           id="g638">
          <use
             height="100%"
             width="100%"
             xlink:href="#textext-b3302d2b-1"
             x="223.43201"
             y="134.765"
             id="use636" />
        </g>
      </g>
    </g>
    <path
       style="opacity:1;fill:#000000;fill-opacity:1;stroke:#000000;stroke-width:1.79999995;stroke-linecap:round;stroke-linejoin:round;stroke-miterlimit:4;stroke-dasharray:none;stroke-dashoffset:0;stroke-opacity:1"
       id="path11218-7-6-2"
       sodipodi:type="arc"
       sodipodi:cx="576.71997"
       sodipodi:cy="302.2377"
       sodipodi:rx="5.0507631"
       sodipodi:ry="5.0507627"
       sodipodi:start="2.5175502"
       sodipodi:end="2.5169219"
       sodipodi:open="true"
       d="m 572.62116,305.18897 a 5.0507631,5.0507627 0 0 1 1.1469,-7.04962 5.0507631,5.0507627 0 0 1 7.04979,1.1458 5.0507631,5.0507627 0 0 1 -1.14468,7.04997 5.0507631,5.0507627 0 0 1 -7.05015,-1.14358" />
    <path
       style="fill:none;fill-rule:evenodd;stroke:#000000;stroke-width:1.31389344;stroke-linecap:butt;stroke-linejoin:miter;stroke-miterlimit:4;stroke-dasharray:2.62778685, 1.31389342;stroke-dashoffset:0;stroke-opacity:1"
       d="m 493.91972,216.68801 81.285,84.53953"
       id="path4621"
       inkscape:connector-curvature="0" />
    <g
       id="g5018"
       transform="matrix(4.6781047,0,0,4.6781047,-539.50196,-345.16485)"
       ns0:preamble=""
       ns0:text="$\\delta$\n">
      <defs
         id="defs5020">
        <g
           id="g5022">
          <symbol
             id="textext-893def1e-0"
             overflow="visible"
             style="overflow:visible">
            <path
               id="path5025"
               d=""
               style="stroke:none"
               inkscape:connector-curvature="0" />
          </symbol>
          <symbol
             id="textext-893def1e-1"
             overflow="visible"
             style="overflow:visible">
            <path
               id="path5028"
               d="M 2.625,-4.359375 C 1.390625,-4.0625 0.421875,-2.765625 0.421875,-1.5625 0.421875,-0.59375 1.0625,0.125 2,0.125 c 1.15625,0 1.984375,-1.578125 1.984375,-2.953125 0,-0.90625 -0.390625,-1.40625 -0.734375,-1.84375 C 2.890625,-5.125 2.296875,-5.875 2.296875,-6.3125 c 0,-0.21875 0.203125,-0.453125 0.546875,-0.453125 0.3125,0 0.5,0.125 0.71875,0.265625 0.203125,0.125 0.390625,0.25 0.546875,0.25 C 4.359375,-6.25 4.5,-6.484375 4.5,-6.65625 4.5,-6.875 4.34375,-6.890625 3.984375,-6.984375 3.46875,-7.09375 3.328125,-7.09375 3.171875,-7.09375 c -0.78125,0 -1.140625,0.4375 -1.140625,1.03125 0,0.546875 0.296875,1.09375 0.59375,1.703125 z m 0.125,0.21875 c 0.25,0.46875 0.546875,1 0.546875,1.71875 0,0.65625 -0.375,2.328125 -1.296875,2.328125 -0.546875,0 -0.96875,-0.421875 -0.96875,-1.1875 0,-0.625 0.375,-2.5 1.71875,-2.859375 z m 0,0"
               style="stroke:none"
               inkscape:connector-curvature="0" />
          </symbol>
        </g>
      </defs>
      <g
         id="textext-893def1e-2">
        <g
           id="g5031"
           style="fill:#000000;fill-opacity:1">
          <use
             id="use5033"
             y="134.765"
             x="223.43201"
             xlink:href="#textext-893def1e-1"
             width="100%"
             height="100%" />
        </g>
      </g>
    </g>
    <g
       ns0:text="$\\mathbf{x}$\n"
       ns0:preamble=""
       transform="matrix(4.6781047,0,0,4.6781047,-459.66005,-308.2068)"
       id="g193">
      <defs
         id="defs186">
        <g
           id="g184">
          <symbol
             overflow="visible"
             id="textext-ba9f5fb0-0">
            <path
               style="stroke:none;"
               d=""
               id="path178" />
          </symbol>
          <symbol
             overflow="visible"
             id="textext-ba9f5fb0-1">
            <path
               style="stroke:none;"
               d="M 3.453125 -2.453125 L 4.609375 -3.75 C 4.75 -3.890625 4.8125 -3.953125 5.625 -3.953125 L 5.625 -4.421875 C 5.28125 -4.40625 4.765625 -4.390625 4.71875 -4.390625 C 4.46875 -4.390625 3.96875 -4.421875 3.6875 -4.421875 L 3.6875 -3.953125 C 3.828125 -3.953125 3.953125 -3.9375 4.0625 -3.875 C 4.03125 -3.8125 4.03125 -3.78125 3.984375 -3.75 L 3.15625 -2.8125 L 2.171875 -3.953125 L 2.578125 -3.953125 L 2.578125 -4.421875 C 2.3125 -4.421875 1.6875 -4.390625 1.359375 -4.390625 C 1.046875 -4.390625 0.59375 -4.421875 0.265625 -4.421875 L 0.265625 -3.953125 L 0.984375 -3.953125 L 2.53125 -2.125 L 1.21875 -0.65625 C 1.0625 -0.46875 0.703125 -0.46875 0.21875 -0.46875 L 0.21875 0 C 0.5625 -0.015625 1.09375 -0.03125 1.140625 -0.03125 C 1.390625 -0.03125 1.96875 -0.015625 2.15625 0 L 2.15625 -0.46875 C 1.984375 -0.46875 1.796875 -0.515625 1.796875 -0.578125 C 1.796875 -0.59375 1.796875 -0.59375 1.859375 -0.671875 L 2.828125 -1.765625 L 3.921875 -0.46875 L 3.53125 -0.46875 L 3.53125 0 C 3.796875 -0.015625 4.40625 -0.03125 4.734375 -0.03125 C 5.046875 -0.03125 5.5 -0.015625 5.828125 0 L 5.828125 -0.46875 L 5.125 -0.46875 Z M 3.453125 -2.453125 "
               id="path181" />
          </symbol>
        </g>
      </defs>
      <g
         id="textext-ba9f5fb0-2">
        <g
           style="fill:rgb(0%,0%,0%);fill-opacity:1;"
           id="g190">
          <use
             xlink:href="#textext-ba9f5fb0-1"
             x="223.432"
             y="134.765"
             id="use188" />
        </g>
      </g>
    </g>
    <g
       id="g188"
       transform="matrix(4.6781047,0,0,4.6781047,-546.69857,-419.85517)"
       ns0:preamble=""
       ns0:text="$\\mathbf{d}$\n">
      <defs
         id="defs180">
        <g
           id="g178">
          <symbol
             id="textext-0c7cdae4-0"
             overflow="visible">
            <path
               id="path172"
               d=""
               style="stroke:none;" />
          </symbol>
          <symbol
             id="textext-0c7cdae4-1"
             overflow="visible">
            <path
               id="path175"
               d="M 4.171875 -0.421875 L 4.171875 0.0625 L 5.984375 0 L 5.984375 -0.46875 C 5.375 -0.46875 5.296875 -0.46875 5.296875 -0.859375 L 5.296875 -6.921875 L 3.53125 -6.84375 L 3.53125 -6.375 C 4.15625 -6.375 4.234375 -6.375 4.234375 -5.984375 L 4.234375 -4.03125 C 3.734375 -4.421875 3.203125 -4.484375 2.875 -4.484375 C 1.421875 -4.484375 0.375 -3.609375 0.375 -2.203125 C 0.375 -0.890625 1.296875 0.0625 2.765625 0.0625 C 3.375 0.0625 3.859375 -0.171875 4.171875 -0.421875 Z M 4.171875 -3.515625 L 4.171875 -1.03125 C 4.03125 -0.84375 3.625 -0.296875 2.875 -0.296875 C 1.65625 -0.296875 1.65625 -1.5 1.65625 -2.203125 C 1.65625 -2.6875 1.65625 -3.21875 1.90625 -3.609375 C 2.203125 -4.03125 2.671875 -4.125 2.984375 -4.125 C 3.546875 -4.125 3.953125 -3.8125 4.171875 -3.515625 Z M 4.171875 -3.515625 "
               style="stroke:none;" />
          </symbol>
        </g>
      </defs>
      <g
         id="textext-0c7cdae4-2">
        <g
           id="g185"
           style="fill:rgb(0%,0%,0%);fill-opacity:1;">
          <use
             id="use182"
             y="134.765"
             x="223.432"
             xlink:href="#textext-0c7cdae4-1" />
        </g>
      </g>
    </g>
  </g>
</svg>
