<?xml version="1.0" encoding="UTF-8" standalone="no"?>
<!-- Created with Inkscape (http://www.inkscape.org/) -->

<svg
   xmlns:ns0="http://www.iki.fi/pav/software/textext/"
   xmlns:dc="http://purl.org/dc/elements/1.1/"
   xmlns:cc="http://creativecommons.org/ns#"
   xmlns:rdf="http://www.w3.org/1999/02/22-rdf-syntax-ns#"
   xmlns:svg="http://www.w3.org/2000/svg"
   xmlns="http://www.w3.org/2000/svg"
   xmlns:xlink="http://www.w3.org/1999/xlink"
   xmlns:sodipodi="http://sodipodi.sourceforge.net/DTD/sodipodi-0.dtd"
   xmlns:inkscape="http://www.inkscape.org/namespaces/inkscape"
   width="91.484673mm"
   height="51.035133mm"
   viewBox="0 0 324.15827 180.83316"
   id="svg2"
   version="1.1"
   inkscape:version="0.91 r13725"
   sodipodi:docname="piecewise_affine.svg">
  <sodipodi:namedview
     id="base"
     pagecolor="#ffffff"
     bordercolor="#666666"
     borderopacity="1.0"
     inkscape:pageopacity="0.0"
     inkscape:pageshadow="2"
     inkscape:zoom="1.4"
     inkscape:cx="128.386"
     inkscape:cy="12.001529"
     inkscape:document-units="px"
     inkscape:current-layer="layer1"
     showgrid="false"
     inkscape:window-width="1918"
     inkscape:window-height="1179"
     inkscape:window-x="0"
     inkscape:window-y="19"
     inkscape:window-maximized="1"
     fit-margin-top="0"
     fit-margin-left="0"
     fit-margin-right="0"
     fit-margin-bottom="0" />
  <defs
     id="defs4" />
  <metadata
     id="metadata7">
    <rdf:RDF>
      <cc:Work
         rdf:about="">
        <dc:format>image/svg+xml</dc:format>
        <dc:type
           rdf:resource="http://purl.org/dc/dcmitype/StillImage" />
        <dc:title></dc:title>
      </cc:Work>
    </rdf:RDF>
  </metadata>
  <g
     id="layer1"
     inkscape:groupmode="layer"
     inkscape:label="Calque 1"
     transform="translate(-90.646787,-273.41055)">
    <path
       inkscape:connector-curvature="0"
       id="path4136"
       d="m 414.80506,444.50506 -240.43592,0 0,-171.09451"
       style="fill:none;fill-rule:evenodd;stroke:#000000;stroke-width:1.17986858;stroke-linecap:butt;stroke-linejoin:miter;stroke-miterlimit:4;stroke-dasharray:none;stroke-opacity:1" />
    <path
       inkscape:connector-curvature="0"
       id="path4138"
       d="M 139.74239,394.54883 287.52747,323.17686"
       style="fill:none;fill-rule:evenodd;stroke:#000000;stroke-width:0.63499999;stroke-linecap:butt;stroke-linejoin:miter;stroke-miterlimit:4;stroke-dasharray:none;stroke-opacity:1" />
    <path
       inkscape:connector-curvature="0"
       id="path4140"
       d="m 199.64466,365.76685 0,78.23098"
       style="fill:none;fill-rule:evenodd;stroke:#000000;stroke-width:1;stroke-linecap:butt;stroke-linejoin:miter;stroke-miterlimit:4;stroke-dasharray:1, 1;stroke-dashoffset:0;stroke-opacity:1" />
    <path
       inkscape:connector-curvature="0"
       id="path4146"
       d="m 199.60002,366.03733 -25.34871,0"
       style="fill:none;fill-rule:evenodd;stroke:#000000;stroke-width:1;stroke-linecap:butt;stroke-linejoin:miter;stroke-miterlimit:4;stroke-dasharray:1, 1;stroke-dashoffset:0;stroke-opacity:1" />
    <g
       id="g4192"
       ns0:preamble=""
       ns0:text="$f(\\mathbf{a})$"
       transform="translate(-70.840665,234.43923)">
      <defs
         id="defs4194">
        <g
           id="g4196">
          <symbol
             id="textext-b1ca84fd-0"
             overflow="visible"
             style="overflow:visible">
            <path
               id="path4199"
               d=""
               style="stroke:none"
               inkscape:connector-curvature="0" />
          </symbol>
          <symbol
             id="textext-b1ca84fd-1"
             overflow="visible"
             style="overflow:visible">
            <path
               id="path4202"
               d="m 3.65625,-3.984375 0.859375,0 c 0.203125,0 0.296875,0 0.296875,-0.203125 0,-0.109375 -0.09375,-0.109375 -0.265625,-0.109375 l -0.828125,0 0.203125,-1.140625 c 0.046875,-0.203125 0.1875,-0.90625 0.25,-1.03125 0.078125,-0.1875 0.25,-0.34375 0.46875,-0.34375 0.03125,0 0.296875,0 0.484375,0.1875 -0.4375,0.03125 -0.546875,0.390625 -0.546875,0.53125 0,0.234375 0.1875,0.359375 0.375,0.359375 C 5.21875,-5.734375 5.5,-5.96875 5.5,-6.34375 c 0,-0.453125 -0.453125,-0.6875 -0.859375,-0.6875 -0.34375,0 -0.96875,0.1875 -1.265625,1.171875 -0.0625,0.203125 -0.09375,0.3125 -0.328125,1.5625 l -0.6875,0 c -0.203125,0 -0.3125,0 -0.3125,0.1875 0,0.125 0.09375,0.125 0.28125,0.125 l 0.65625,0 -0.734375,3.9375 c -0.1875,0.96875 -0.359375,1.875 -0.875,1.875 -0.046875,0 -0.28125,0 -0.484375,-0.1875 C 1.359375,1.609375 1.453125,1.25 1.453125,1.109375 1.453125,0.875 1.265625,0.75 1.078125,0.75 0.8125,0.75 0.53125,0.984375 0.53125,1.359375 c 0,0.4375 0.4375,0.6875 0.84375,0.6875 0.546875,0 0.953125,-0.59375 1.125,-0.96875 0.328125,-0.625 0.546875,-1.828125 0.5625,-1.90625 z m 0,0"
               style="stroke:none"
               inkscape:connector-curvature="0" />
          </symbol>
          <symbol
             id="textext-b1ca84fd-2"
             overflow="visible"
             style="overflow:visible">
            <path
               id="path4205"
               d=""
               style="stroke:none"
               inkscape:connector-curvature="0" />
          </symbol>
          <symbol
             id="textext-b1ca84fd-3"
             overflow="visible"
             style="overflow:visible">
            <path
               id="path4208"
               d="m 3.296875,2.390625 c 0,-0.03125 0,-0.046875 -0.171875,-0.21875 C 1.890625,0.921875 1.5625,-0.96875 1.5625,-2.5 c 0,-1.734375 0.375,-3.46875 1.609375,-4.703125 0.125,-0.125 0.125,-0.140625 0.125,-0.171875 0,-0.078125 -0.03125,-0.109375 -0.09375,-0.109375 -0.109375,0 -1,0.6875 -1.59375,1.953125 -0.5,1.09375 -0.625,2.203125 -0.625,3.03125 0,0.78125 0.109375,1.984375 0.65625,3.125 C 2.25,1.84375 3.09375,2.5 3.203125,2.5 c 0.0625,0 0.09375,-0.03125 0.09375,-0.109375 z m 0,0"
               style="stroke:none"
               inkscape:connector-curvature="0" />
          </symbol>
          <symbol
             id="textext-b1ca84fd-4"
             overflow="visible"
             style="overflow:visible">
            <path
               id="path4211"
               d="m 2.875,-2.5 c 0,-0.765625 -0.109375,-1.96875 -0.65625,-3.109375 -0.59375,-1.21875 -1.453125,-1.875 -1.546875,-1.875 -0.0625,0 -0.109375,0.046875 -0.109375,0.109375 0,0.03125 0,0.046875 0.1875,0.234375 0.984375,0.984375 1.546875,2.5625 1.546875,4.640625 0,1.71875 -0.359375,3.46875 -1.59375,4.71875 C 0.5625,2.34375 0.5625,2.359375 0.5625,2.390625 0.5625,2.453125 0.609375,2.5 0.671875,2.5 0.765625,2.5 1.671875,1.8125 2.25,0.546875 2.765625,-0.546875 2.875,-1.65625 2.875,-2.5 Z m 0,0"
               style="stroke:none"
               inkscape:connector-curvature="0" />
          </symbol>
          <symbol
             id="textext-b1ca84fd-5"
             overflow="visible"
             style="overflow:visible">
            <path
               id="path4214"
               d=""
               style="stroke:none"
               inkscape:connector-curvature="0" />
          </symbol>
          <symbol
             id="textext-b1ca84fd-6"
             overflow="visible"
             style="overflow:visible">
            <path
               id="path4217"
               d="m 3.734375,-0.765625 c 0,0.3125 0,0.765625 1.03125,0.765625 L 5.25,0 C 5.4375,0 5.5625,0 5.5625,-0.234375 5.5625,-0.46875 5.4375,-0.46875 5.296875,-0.46875 4.6875,-0.484375 4.6875,-0.609375 4.6875,-0.84375 l 0,-2.140625 c 0,-0.890625 -0.703125,-1.53125 -2.1875,-1.53125 -0.5625,0 -1.78125,0.046875 -1.78125,0.921875 0,0.4375 0.34375,0.625 0.609375,0.625 0.3125,0 0.640625,-0.21875 0.640625,-0.625 0,-0.296875 -0.1875,-0.46875 -0.21875,-0.5 0.28125,-0.046875 0.59375,-0.0625 0.71875,-0.0625 0.734375,0 1.09375,0.421875 1.09375,1.171875 l 0,0.34375 c -0.71875,0.03125 -3.25,0.125 -3.25,1.5625 0,0.953125 1.25,1.140625 1.9375,1.140625 0.796875,0 1.265625,-0.40625 1.484375,-0.828125 z m -0.171875,-1.5625 0,0.9375 c 0,0.96875 -0.921875,1.09375 -1.171875,1.09375 -0.5,0 -0.90625,-0.34375 -0.90625,-0.796875 0,-1.0625 1.578125,-1.203125 2.078125,-1.234375 z m 0,0"
               style="stroke:none"
               inkscape:connector-curvature="0" />
          </symbol>
        </g>
      </defs>
      <g
         id="textext-b1ca84fd-7">
        <g
           id="g4220"
           style="fill:#000000;fill-opacity:1">
          <use
             id="use4222"
             y="134.765"
             x="223.43201"
             xlink:href="#textext-b1ca84fd-1"
             width="100%"
             height="100%" />
        </g>
        <g
           id="g4224"
           style="fill:#000000;fill-opacity:1">
          <use
             id="use4226"
             y="134.765"
             x="229.382"
             xlink:href="#textext-b1ca84fd-3"
             width="100%"
             height="100%" />
        </g>
        <g
           id="g4228"
           style="fill:#000000;fill-opacity:1">
          <use
             id="use4230"
             y="134.765"
             x="233.256"
             xlink:href="#textext-b1ca84fd-6"
             width="100%"
             height="100%" />
        </g>
        <g
           id="g4232"
           style="fill:#000000;fill-opacity:1">
          <use
             id="use4234"
             y="134.765"
             x="238.826"
             xlink:href="#textext-b1ca84fd-4"
             width="100%"
             height="100%" />
        </g>
      </g>
    </g>
    <g
       ns0:text="$\\mathbf{a}$"
       ns0:preamble=""
       transform="translate(-29.423813,320.39386)"
       id="g4754">
      <defs
         id="defs4756">
        <g
           id="g4758">
          <symbol
             overflow="visible"
             id="textext-529bb810-0"
             style="overflow:visible">
            <path
               style="stroke:none"
               d=""
               id="path4761"
               inkscape:connector-curvature="0" />
          </symbol>
          <symbol
             overflow="visible"
             id="textext-529bb810-1"
             style="overflow:visible">
            <path
               style="stroke:none"
               d="m 3.734375,-0.765625 c 0,0.3125 0,0.765625 1.03125,0.765625 L 5.25,0 C 5.4375,0 5.5625,0 5.5625,-0.234375 5.5625,-0.46875 5.4375,-0.46875 5.296875,-0.46875 4.6875,-0.484375 4.6875,-0.609375 4.6875,-0.84375 l 0,-2.140625 c 0,-0.890625 -0.703125,-1.53125 -2.1875,-1.53125 -0.5625,0 -1.78125,0.046875 -1.78125,0.921875 0,0.4375 0.34375,0.625 0.609375,0.625 0.3125,0 0.640625,-0.21875 0.640625,-0.625 0,-0.296875 -0.1875,-0.46875 -0.21875,-0.5 0.28125,-0.046875 0.59375,-0.0625 0.71875,-0.0625 0.734375,0 1.09375,0.421875 1.09375,1.171875 l 0,0.34375 c -0.71875,0.03125 -3.25,0.125 -3.25,1.5625 0,0.953125 1.25,1.140625 1.9375,1.140625 0.796875,0 1.265625,-0.40625 1.484375,-0.828125 z m -0.171875,-1.5625 0,0.9375 c 0,0.96875 -0.921875,1.09375 -1.171875,1.09375 -0.5,0 -0.90625,-0.34375 -0.90625,-0.796875 0,-1.0625 1.578125,-1.203125 2.078125,-1.234375 z m 0,0"
               id="path4764"
               inkscape:connector-curvature="0" />
          </symbol>
        </g>
      </defs>
      <g
         id="textext-529bb810-2">
        <g
           style="fill:#000000;fill-opacity:1"
           id="g4767">
          <use
             xlink:href="#textext-529bb810-1"
             x="223.43201"
             y="134.765"
             id="use4769"
             width="100%"
             height="100%"
             transform="translate(0,-0.977655)" />
        </g>
      </g>
    </g>
    <g
       id="g5137"
       transform="translate(51.297077,319.41621)"
       ns0:preamble=""
       ns0:text="$\\mathbf{d}$">
      <defs
         id="defs5139">
        <g
           id="g5141">
          <symbol
             id="textext-00c6e456-0"
             overflow="visible"
             style="overflow:visible">
            <path
               id="path5144"
               d=""
               style="stroke:none"
               inkscape:connector-curvature="0" />
          </symbol>
          <symbol
             id="textext-00c6e456-1"
             overflow="visible"
             style="overflow:visible">
            <path
               id="path5147"
               d="m 4.171875,-0.421875 0,0.484375 1.8125,-0.0625 0,-0.46875 c -0.609375,0 -0.6875,0 -0.6875,-0.390625 l 0,-6.0625 -1.765625,0.078125 0,0.46875 c 0.625,0 0.703125,0 0.703125,0.390625 l 0,1.953125 c -0.5,-0.390625 -1.03125,-0.453125 -1.359375,-0.453125 -1.453125,0 -2.5,0.875 -2.5,2.28125 0,1.3125 0.921875,2.265625 2.390625,2.265625 0.609375,0 1.09375,-0.234375 1.40625,-0.484375 z m 0,-3.09375 0,2.484375 C 4.03125,-0.84375 3.625,-0.296875 2.875,-0.296875 c -1.21875,0 -1.21875,-1.203125 -1.21875,-1.90625 0,-0.484375 0,-1.015625 0.25,-1.40625 C 2.203125,-4.03125 2.671875,-4.125 2.984375,-4.125 c 0.5625,0 0.96875,0.3125 1.1875,0.609375 z m 0,0"
               style="stroke:none"
               inkscape:connector-curvature="0" />
          </symbol>
        </g>
      </defs>
      <g
         id="textext-00c6e456-2">
        <g
           id="g5150"
           style="fill:#000000;fill-opacity:1">
          <use
             id="use5152"
             y="134.765"
             x="223.43201"
             xlink:href="#textext-00c6e456-1"
             width="100%"
             height="100%" />
        </g>
      </g>
    </g>
    <g
       ns0:text="$\\mathbf{b}$"
       ns0:preamble=""
       transform="translate(-5.2684329,319.78419)"
       id="g5460">
      <defs
         id="defs5462">
        <g
           id="g5464">
          <symbol
             overflow="visible"
             id="textext-6c84ba9a-0"
             style="overflow:visible">
            <path
               style="stroke:none"
               d=""
               id="path5467"
               inkscape:connector-curvature="0" />
          </symbol>
          <symbol
             overflow="visible"
             id="textext-6c84ba9a-1"
             style="overflow:visible">
            <path
               style="stroke:none"
               d="m 2.140625,-4 0,-2.921875 -1.765625,0.078125 0,0.46875 c 0.609375,0 0.6875,0 0.6875,0.390625 L 1.0625,0 1.53125,0 2.015625,-0.5625 c 0.078125,0.078125 0.5625,0.625 1.453125,0.625 1.484375,0 2.515625,-0.90625 2.515625,-2.28125 0,-1.328125 -0.9375,-2.265625 -2.390625,-2.265625 C 2.875,-4.484375 2.375,-4.203125 2.140625,-4 Z m 0.046875,3.015625 0,-2.5 C 2.46875,-3.84375 2.9375,-4.125 3.484375,-4.125 c 1.21875,0 1.21875,1.203125 1.21875,1.90625 0,0.46875 0,1.015625 -0.25,1.40625 -0.296875,0.40625 -0.75,0.515625 -1.078125,0.515625 -0.6875,0 -1.078125,-0.546875 -1.1875,-0.6875 z m 0,0"
               id="path5470"
               inkscape:connector-curvature="0" />
          </symbol>
        </g>
      </defs>
      <g
         id="textext-6c84ba9a-2">
        <g
           style="fill:#000000;fill-opacity:1"
           id="g5473">
          <use
             xlink:href="#textext-6c84ba9a-1"
             x="223.43201"
             y="134.765"
             id="use5475"
             width="100%"
             height="100%"
             transform="translate(0,-0.36798)" />
        </g>
      </g>
    </g>
    <g
       id="g5783"
       transform="translate(30.902616,319.0699)"
       ns0:preamble=""
       ns0:text="$\\mathbf{c}$">
      <defs
         id="defs5785">
        <g
           id="g5787">
          <symbol
             id="textext-865a7081-0"
             overflow="visible"
             style="overflow:visible">
            <path
               id="path5790"
               d=""
               style="stroke:none"
               inkscape:connector-curvature="0" />
          </symbol>
          <symbol
             id="textext-865a7081-1"
             overflow="visible"
             style="overflow:visible">
            <path
               id="path5793"
               d="m 3.59375,-4.0625 c -0.1875,0.171875 -0.203125,0.375 -0.203125,0.46875 0,0.4375 0.34375,0.625 0.609375,0.625 0.3125,0 0.640625,-0.21875 0.640625,-0.625 0,-0.859375 -1.15625,-0.921875 -1.734375,-0.921875 -1.796875,0 -2.53125,1.140625 -2.53125,2.296875 0,1.328125 0.9375,2.28125 2.46875,2.28125 1.625,0 1.921875,-1.15625 1.921875,-1.234375 C 4.765625,-1.3125 4.625,-1.3125 4.53125,-1.3125 c -0.1875,0 -0.1875,0.03125 -0.25,0.15625 -0.25,0.625 -0.734375,0.8125 -1.234375,0.8125 -1.390625,0 -1.390625,-1.453125 -1.390625,-1.921875 0,-0.5625 0,-1.84375 1.28125,-1.84375 0.359375,0 0.515625,0.015625 0.65625,0.046875 z m 0,0"
               style="stroke:none"
               inkscape:connector-curvature="0" />
          </symbol>
        </g>
      </defs>
      <g
         id="textext-865a7081-2">
        <g
           id="g5796"
           style="fill:#000000;fill-opacity:1">
          <use
             id="use5798"
             y="134.765"
             x="223.43201"
             xlink:href="#textext-865a7081-1"
             width="100%"
             height="100%"
             transform="translate(0,0.346315)" />
        </g>
      </g>
    </g>
    <path
       inkscape:connector-curvature="0"
       id="path4138-3"
       d="m 287.27427,323.18813 80.60451,29.5436"
       style="fill:none;fill-rule:evenodd;stroke:#000000;stroke-width:0.63499999;stroke-linecap:butt;stroke-linejoin:miter;stroke-miterlimit:4;stroke-dasharray:none;stroke-opacity:1" />
    <path
       inkscape:connector-curvature="0"
       id="path4138-7"
       d="m 367.50311,352.86695 46.18318,-78.02228"
       style="fill:none;fill-rule:evenodd;stroke:#000000;stroke-width:0.63499999;stroke-linecap:butt;stroke-linejoin:miter;stroke-miterlimit:4;stroke-dasharray:none;stroke-opacity:1" />
    <path
       inkscape:connector-curvature="0"
       id="path4140-5"
       d="m 220.85184,357.51704 0,85.80712"
       style="fill:none;fill-rule:evenodd;stroke:#000000;stroke-width:1;stroke-linecap:butt;stroke-linejoin:miter;stroke-miterlimit:4;stroke-dasharray:1, 1;stroke-dashoffset:0;stroke-opacity:1" />
    <path
       inkscape:connector-curvature="0"
       id="path4140-3"
       d="m 256.70344,339.41858 0,105.50072"
       style="fill:none;fill-rule:evenodd;stroke:#000000;stroke-width:1;stroke-linecap:butt;stroke-linejoin:miter;stroke-miterlimit:4;stroke-dasharray:1, 1;stroke-dashoffset:0;stroke-opacity:1" />
    <path
       inkscape:connector-curvature="0"
       id="path4140-5-5"
       d="m 277.91062,329.35369 0,115.44998"
       style="fill:none;fill-rule:evenodd;stroke:#000000;stroke-width:1;stroke-linecap:butt;stroke-linejoin:miter;stroke-miterlimit:4;stroke-dasharray:1, 1;stroke-dashoffset:0;stroke-opacity:1" />
    <path
       inkscape:connector-curvature="0"
       id="path4146-6"
       d="m 219.15713,355.23668 -44.63442,0"
       style="fill:none;fill-rule:evenodd;stroke:#000000;stroke-width:1;stroke-linecap:butt;stroke-linejoin:miter;stroke-miterlimit:4;stroke-dasharray:1, 1;stroke-dashoffset:0;stroke-opacity:1" />
    <path
       inkscape:connector-curvature="0"
       id="path4146-6-2"
       d="m 254.7858,339.05382 -78.22199,0"
       style="fill:none;fill-rule:evenodd;stroke:#000000;stroke-width:1;stroke-linecap:butt;stroke-linejoin:miter;stroke-miterlimit:4;stroke-dasharray:1, 1;stroke-dashoffset:0;stroke-opacity:1" />
    <path
       inkscape:connector-curvature="0"
       id="path4146-6-9"
       d="m 277.3564,327.68961 -102.61507,0"
       style="fill:none;fill-rule:evenodd;stroke:#000000;stroke-width:1;stroke-linecap:butt;stroke-linejoin:miter;stroke-miterlimit:4;stroke-dasharray:1, 1;stroke-dashoffset:0;stroke-opacity:1" />
    <g
       ns0:text="$f(\\mathbf{c}) - f(\\mathbf{a})  + f(\\mathbf{b}) $"
       ns0:preamble=""
       transform="translate(-133.3165,194.41734)"
       id="g5978">
      <defs
         id="defs5980">
        <g
           id="g5982">
          <symbol
             style="overflow:visible"
             overflow="visible"
             id="textext-c75c1e4c-0">
            <path
               inkscape:connector-curvature="0"
               style="stroke:none"
               d=""
               id="path5985" />
          </symbol>
          <symbol
             style="overflow:visible"
             overflow="visible"
             id="textext-c75c1e4c-1">
            <path
               inkscape:connector-curvature="0"
               style="stroke:none"
               d="m 3.65625,-3.984375 0.859375,0 c 0.203125,0 0.296875,0 0.296875,-0.203125 0,-0.109375 -0.09375,-0.109375 -0.265625,-0.109375 l -0.828125,0 0.203125,-1.140625 c 0.046875,-0.203125 0.1875,-0.90625 0.25,-1.03125 0.078125,-0.1875 0.25,-0.34375 0.46875,-0.34375 0.03125,0 0.296875,0 0.484375,0.1875 -0.4375,0.03125 -0.546875,0.390625 -0.546875,0.53125 0,0.234375 0.1875,0.359375 0.375,0.359375 C 5.21875,-5.734375 5.5,-5.96875 5.5,-6.34375 c 0,-0.453125 -0.453125,-0.6875 -0.859375,-0.6875 -0.34375,0 -0.96875,0.1875 -1.265625,1.171875 -0.0625,0.203125 -0.09375,0.3125 -0.328125,1.5625 l -0.6875,0 c -0.203125,0 -0.3125,0 -0.3125,0.1875 0,0.125 0.09375,0.125 0.28125,0.125 l 0.65625,0 -0.734375,3.9375 c -0.1875,0.96875 -0.359375,1.875 -0.875,1.875 -0.046875,0 -0.28125,0 -0.484375,-0.1875 C 1.359375,1.609375 1.453125,1.25 1.453125,1.109375 1.453125,0.875 1.265625,0.75 1.078125,0.75 0.8125,0.75 0.53125,0.984375 0.53125,1.359375 c 0,0.4375 0.4375,0.6875 0.84375,0.6875 0.546875,0 0.953125,-0.59375 1.125,-0.96875 0.328125,-0.625 0.546875,-1.828125 0.5625,-1.90625 z m 0,0"
               id="path5988" />
          </symbol>
          <symbol
             style="overflow:visible"
             overflow="visible"
             id="textext-c75c1e4c-2">
            <path
               inkscape:connector-curvature="0"
               style="stroke:none"
               d=""
               id="path5991" />
          </symbol>
          <symbol
             style="overflow:visible"
             overflow="visible"
             id="textext-c75c1e4c-3">
            <path
               inkscape:connector-curvature="0"
               style="stroke:none"
               d="m 3.296875,2.390625 c 0,-0.03125 0,-0.046875 -0.171875,-0.21875 C 1.890625,0.921875 1.5625,-0.96875 1.5625,-2.5 c 0,-1.734375 0.375,-3.46875 1.609375,-4.703125 0.125,-0.125 0.125,-0.140625 0.125,-0.171875 0,-0.078125 -0.03125,-0.109375 -0.09375,-0.109375 -0.109375,0 -1,0.6875 -1.59375,1.953125 -0.5,1.09375 -0.625,2.203125 -0.625,3.03125 0,0.78125 0.109375,1.984375 0.65625,3.125 C 2.25,1.84375 3.09375,2.5 3.203125,2.5 c 0.0625,0 0.09375,-0.03125 0.09375,-0.109375 z m 0,0"
               id="path5994" />
          </symbol>
          <symbol
             style="overflow:visible"
             overflow="visible"
             id="textext-c75c1e4c-4">
            <path
               inkscape:connector-curvature="0"
               style="stroke:none"
               d="m 2.875,-2.5 c 0,-0.765625 -0.109375,-1.96875 -0.65625,-3.109375 -0.59375,-1.21875 -1.453125,-1.875 -1.546875,-1.875 -0.0625,0 -0.109375,0.046875 -0.109375,0.109375 0,0.03125 0,0.046875 0.1875,0.234375 0.984375,0.984375 1.546875,2.5625 1.546875,4.640625 0,1.71875 -0.359375,3.46875 -1.59375,4.71875 C 0.5625,2.34375 0.5625,2.359375 0.5625,2.390625 0.5625,2.453125 0.609375,2.5 0.671875,2.5 0.765625,2.5 1.671875,1.8125 2.25,0.546875 2.765625,-0.546875 2.875,-1.65625 2.875,-2.5 Z m 0,0"
               id="path5997" />
          </symbol>
          <symbol
             style="overflow:visible"
             overflow="visible"
             id="textext-c75c1e4c-5">
            <path
               inkscape:connector-curvature="0"
               style="stroke:none"
               d="m 4.078125,-2.296875 2.78125,0 C 7,-2.296875 7.1875,-2.296875 7.1875,-2.5 7.1875,-2.6875 7,-2.6875 6.859375,-2.6875 l -2.78125,0 0,-2.796875 c 0,-0.140625 0,-0.328125 -0.203125,-0.328125 -0.203125,0 -0.203125,0.1875 -0.203125,0.328125 l 0,2.796875 -2.78125,0 c -0.140625,0 -0.328125,0 -0.328125,0.1875 0,0.203125 0.1875,0.203125 0.328125,0.203125 l 2.78125,0 0,2.796875 c 0,0.140625 0,0.328125 0.203125,0.328125 0.203125,0 0.203125,-0.1875 0.203125,-0.328125 z m 0,0"
               id="path6000" />
          </symbol>
          <symbol
             style="overflow:visible"
             overflow="visible"
             id="textext-c75c1e4c-6">
            <path
               inkscape:connector-curvature="0"
               style="stroke:none"
               d=""
               id="path6003" />
          </symbol>
          <symbol
             style="overflow:visible"
             overflow="visible"
             id="textext-c75c1e4c-7">
            <path
               inkscape:connector-curvature="0"
               style="stroke:none"
               d="m 3.59375,-4.0625 c -0.1875,0.171875 -0.203125,0.375 -0.203125,0.46875 0,0.4375 0.34375,0.625 0.609375,0.625 0.3125,0 0.640625,-0.21875 0.640625,-0.625 0,-0.859375 -1.15625,-0.921875 -1.734375,-0.921875 -1.796875,0 -2.53125,1.140625 -2.53125,2.296875 0,1.328125 0.9375,2.28125 2.46875,2.28125 1.625,0 1.921875,-1.15625 1.921875,-1.234375 C 4.765625,-1.3125 4.625,-1.3125 4.53125,-1.3125 c -0.1875,0 -0.1875,0.03125 -0.25,0.15625 -0.25,0.625 -0.734375,0.8125 -1.234375,0.8125 -1.390625,0 -1.390625,-1.453125 -1.390625,-1.921875 0,-0.5625 0,-1.84375 1.28125,-1.84375 0.359375,0 0.515625,0.015625 0.65625,0.046875 z m 0,0"
               id="path6006" />
          </symbol>
          <symbol
             style="overflow:visible"
             overflow="visible"
             id="textext-c75c1e4c-8">
            <path
               inkscape:connector-curvature="0"
               style="stroke:none"
               d="m 3.734375,-0.765625 c 0,0.3125 0,0.765625 1.03125,0.765625 L 5.25,0 C 5.4375,0 5.5625,0 5.5625,-0.234375 5.5625,-0.46875 5.4375,-0.46875 5.296875,-0.46875 4.6875,-0.484375 4.6875,-0.609375 4.6875,-0.84375 l 0,-2.140625 c 0,-0.890625 -0.703125,-1.53125 -2.1875,-1.53125 -0.5625,0 -1.78125,0.046875 -1.78125,0.921875 0,0.4375 0.34375,0.625 0.609375,0.625 0.3125,0 0.640625,-0.21875 0.640625,-0.625 0,-0.296875 -0.1875,-0.46875 -0.21875,-0.5 0.28125,-0.046875 0.59375,-0.0625 0.71875,-0.0625 0.734375,0 1.09375,0.421875 1.09375,1.171875 l 0,0.34375 c -0.71875,0.03125 -3.25,0.125 -3.25,1.5625 0,0.953125 1.25,1.140625 1.9375,1.140625 0.796875,0 1.265625,-0.40625 1.484375,-0.828125 z m -0.171875,-1.5625 0,0.9375 c 0,0.96875 -0.921875,1.09375 -1.171875,1.09375 -0.5,0 -0.90625,-0.34375 -0.90625,-0.796875 0,-1.0625 1.578125,-1.203125 2.078125,-1.234375 z m 0,0"
               id="path6009" />
          </symbol>
          <symbol
             style="overflow:visible"
             overflow="visible"
             id="textext-c75c1e4c-9">
            <path
               inkscape:connector-curvature="0"
               style="stroke:none"
               d="m 2.140625,-4 0,-2.921875 -1.765625,0.078125 0,0.46875 c 0.609375,0 0.6875,0 0.6875,0.390625 L 1.0625,0 1.53125,0 2.015625,-0.5625 c 0.078125,0.078125 0.5625,0.625 1.453125,0.625 1.484375,0 2.515625,-0.90625 2.515625,-2.28125 0,-1.328125 -0.9375,-2.265625 -2.390625,-2.265625 C 2.875,-4.484375 2.375,-4.203125 2.140625,-4 Z m 0.046875,3.015625 0,-2.5 C 2.46875,-3.84375 2.9375,-4.125 3.484375,-4.125 c 1.21875,0 1.21875,1.203125 1.21875,1.90625 0,0.46875 0,1.015625 -0.25,1.40625 -0.296875,0.40625 -0.75,0.515625 -1.078125,0.515625 -0.6875,0 -1.078125,-0.546875 -1.1875,-0.6875 z m 0,0"
               id="path6012" />
          </symbol>
          <symbol
             style="overflow:visible"
             overflow="visible"
             id="textext-c75c1e4c-10">
            <path
               inkscape:connector-curvature="0"
               style="stroke:none"
               d=""
               id="path6015" />
          </symbol>
          <symbol
             style="overflow:visible"
             overflow="visible"
             id="textext-c75c1e4c-11">
            <path
               inkscape:connector-curvature="0"
               style="stroke:none"
               d="m 6.5625,-2.296875 c 0.171875,0 0.359375,0 0.359375,-0.203125 0,-0.1875 -0.1875,-0.1875 -0.359375,-0.1875 l -5.390625,0 c -0.171875,0 -0.34375,0 -0.34375,0.1875 0,0.203125 0.171875,0.203125 0.34375,0.203125 z m 0,0"
               id="path6018" />
          </symbol>
        </g>
      </defs>
      <g
         id="textext-c75c1e4c-12">
        <g
           style="fill:#000000;fill-opacity:1"
           id="g6021">
          <use
             height="100%"
             width="100%"
             xlink:href="#textext-c75c1e4c-1"
             x="223.43201"
             y="134.765"
             id="use6023" />
        </g>
        <g
           style="fill:#000000;fill-opacity:1"
           id="g6025">
          <use
             height="100%"
             width="100%"
             xlink:href="#textext-c75c1e4c-3"
             x="229.382"
             y="134.765"
             id="use6027" />
        </g>
        <g
           style="fill:#000000;fill-opacity:1"
           id="g6029">
          <use
             height="100%"
             width="100%"
             xlink:href="#textext-c75c1e4c-7"
             x="233.256"
             y="134.765"
             id="use6031" />
        </g>
        <g
           style="fill:#000000;fill-opacity:1"
           id="g6033">
          <use
             height="100%"
             width="100%"
             xlink:href="#textext-c75c1e4c-4"
             x="238.34801"
             y="134.765"
             id="use6035" />
        </g>
        <g
           style="fill:#000000;fill-opacity:1"
           id="g6037">
          <use
             height="100%"
             width="100%"
             xlink:href="#textext-c75c1e4c-11"
             x="244.437"
             y="134.765"
             id="use6039" />
        </g>
        <g
           style="fill:#000000;fill-opacity:1"
           id="g6041">
          <use
             height="100%"
             width="100%"
             xlink:href="#textext-c75c1e4c-1"
             x="254.399"
             y="134.765"
             id="use6043" />
        </g>
        <g
           style="fill:#000000;fill-opacity:1"
           id="g6045">
          <use
             height="100%"
             width="100%"
             xlink:href="#textext-c75c1e4c-3"
             x="260.349"
             y="134.765"
             id="use6047" />
        </g>
        <g
           style="fill:#000000;fill-opacity:1"
           id="g6049">
          <use
             height="100%"
             width="100%"
             xlink:href="#textext-c75c1e4c-8"
             x="264.224"
             y="134.765"
             id="use6051" />
        </g>
        <g
           style="fill:#000000;fill-opacity:1"
           id="g6053">
          <use
             height="100%"
             width="100%"
             xlink:href="#textext-c75c1e4c-4"
             x="269.793"
             y="134.765"
             id="use6055" />
        </g>
        <g
           style="fill:#000000;fill-opacity:1"
           id="g6057">
          <use
             height="100%"
             width="100%"
             xlink:href="#textext-c75c1e4c-5"
             x="275.87915"
             y="134.765"
             id="use6059" />
        </g>
        <g
           style="fill:#000000;fill-opacity:1"
           id="g6061">
          <use
             height="100%"
             width="100%"
             xlink:href="#textext-c75c1e4c-1"
             x="285.84399"
             y="134.765"
             id="use6063" />
        </g>
        <g
           style="fill:#000000;fill-opacity:1"
           id="g6065">
          <use
             height="100%"
             width="100%"
             xlink:href="#textext-c75c1e4c-3"
             x="291.79401"
             y="134.765"
             id="use6067" />
        </g>
        <g
           style="fill:#000000;fill-opacity:1"
           id="g6069">
          <use
             height="100%"
             width="100%"
             xlink:href="#textext-c75c1e4c-9"
             x="295.668"
             y="134.765"
             id="use6071" />
        </g>
        <g
           style="fill:#000000;fill-opacity:1"
           id="g6073">
          <use
             height="100%"
             width="100%"
             xlink:href="#textext-c75c1e4c-4"
             x="302.03299"
             y="134.765"
             id="use6075" />
        </g>
      </g>
    </g>
    <g
       id="g6431"
       transform="translate(-70.500871,222.28218)"
       ns0:preamble=""
       ns0:text="$f(\\mathbf{b})$">
      <defs
         id="defs6433">
        <g
           id="g6435">
          <symbol
             id="symbol6437"
             overflow="visible"
             style="overflow:visible">
            <path
               id="path6439"
               d=""
               style="stroke:none"
               inkscape:connector-curvature="0" />
          </symbol>
          <symbol
             id="symbol6441"
             overflow="visible"
             style="overflow:visible">
            <path
               id="path6444"
               d="m 3.65625,-3.984375 0.859375,0 c 0.203125,0 0.296875,0 0.296875,-0.203125 0,-0.109375 -0.09375,-0.109375 -0.265625,-0.109375 l -0.828125,0 0.203125,-1.140625 c 0.046875,-0.203125 0.1875,-0.90625 0.25,-1.03125 0.078125,-0.1875 0.25,-0.34375 0.46875,-0.34375 0.03125,0 0.296875,0 0.484375,0.1875 -0.4375,0.03125 -0.546875,0.390625 -0.546875,0.53125 0,0.234375 0.1875,0.359375 0.375,0.359375 C 5.21875,-5.734375 5.5,-5.96875 5.5,-6.34375 c 0,-0.453125 -0.453125,-0.6875 -0.859375,-0.6875 -0.34375,0 -0.96875,0.1875 -1.265625,1.171875 -0.0625,0.203125 -0.09375,0.3125 -0.328125,1.5625 l -0.6875,0 c -0.203125,0 -0.3125,0 -0.3125,0.1875 0,0.125 0.09375,0.125 0.28125,0.125 l 0.65625,0 -0.734375,3.9375 c -0.1875,0.96875 -0.359375,1.875 -0.875,1.875 -0.046875,0 -0.28125,0 -0.484375,-0.1875 C 1.359375,1.609375 1.453125,1.25 1.453125,1.109375 1.453125,0.875 1.265625,0.75 1.078125,0.75 0.8125,0.75 0.53125,0.984375 0.53125,1.359375 c 0,0.4375 0.4375,0.6875 0.84375,0.6875 0.546875,0 0.953125,-0.59375 1.125,-0.96875 0.328125,-0.625 0.546875,-1.828125 0.5625,-1.90625 z m 0,0"
               style="stroke:none"
               inkscape:connector-curvature="0" />
          </symbol>
          <symbol
             id="symbol6446"
             overflow="visible"
             style="overflow:visible">
            <path
               id="path6448"
               d=""
               style="stroke:none"
               inkscape:connector-curvature="0" />
          </symbol>
          <symbol
             id="symbol6450"
             overflow="visible"
             style="overflow:visible">
            <path
               id="path6452"
               d="m 3.296875,2.390625 c 0,-0.03125 0,-0.046875 -0.171875,-0.21875 C 1.890625,0.921875 1.5625,-0.96875 1.5625,-2.5 c 0,-1.734375 0.375,-3.46875 1.609375,-4.703125 0.125,-0.125 0.125,-0.140625 0.125,-0.171875 0,-0.078125 -0.03125,-0.109375 -0.09375,-0.109375 -0.109375,0 -1,0.6875 -1.59375,1.953125 -0.5,1.09375 -0.625,2.203125 -0.625,3.03125 0,0.78125 0.109375,1.984375 0.65625,3.125 C 2.25,1.84375 3.09375,2.5 3.203125,2.5 c 0.0625,0 0.09375,-0.03125 0.09375,-0.109375 z m 0,0"
               style="stroke:none"
               inkscape:connector-curvature="0" />
          </symbol>
          <symbol
             id="symbol6454"
             overflow="visible"
             style="overflow:visible">
            <path
               id="path6456"
               d="m 2.875,-2.5 c 0,-0.765625 -0.109375,-1.96875 -0.65625,-3.109375 -0.59375,-1.21875 -1.453125,-1.875 -1.546875,-1.875 -0.0625,0 -0.109375,0.046875 -0.109375,0.109375 0,0.03125 0,0.046875 0.1875,0.234375 0.984375,0.984375 1.546875,2.5625 1.546875,4.640625 0,1.71875 -0.359375,3.46875 -1.59375,4.71875 C 0.5625,2.34375 0.5625,2.359375 0.5625,2.390625 0.5625,2.453125 0.609375,2.5 0.671875,2.5 0.765625,2.5 1.671875,1.8125 2.25,0.546875 2.765625,-0.546875 2.875,-1.65625 2.875,-2.5 Z m 0,0"
               style="stroke:none"
               inkscape:connector-curvature="0" />
          </symbol>
          <symbol
             id="symbol6458"
             overflow="visible"
             style="overflow:visible">
            <path
               id="path6460"
               d=""
               style="stroke:none"
               inkscape:connector-curvature="0" />
          </symbol>
          <symbol
             id="symbol6462"
             overflow="visible"
             style="overflow:visible">
            <path
               id="path6464"
               d="m 2.140625,-4 0,-2.921875 -1.765625,0.078125 0,0.46875 c 0.609375,0 0.6875,0 0.6875,0.390625 L 1.0625,0 1.53125,0 2.015625,-0.5625 c 0.078125,0.078125 0.5625,0.625 1.453125,0.625 1.484375,0 2.515625,-0.90625 2.515625,-2.28125 0,-1.328125 -0.9375,-2.265625 -2.390625,-2.265625 C 2.875,-4.484375 2.375,-4.203125 2.140625,-4 Z m 0.046875,3.015625 0,-2.5 C 2.46875,-3.84375 2.9375,-4.125 3.484375,-4.125 c 1.21875,0 1.21875,1.203125 1.21875,1.90625 0,0.46875 0,1.015625 -0.25,1.40625 -0.296875,0.40625 -0.75,0.515625 -1.078125,0.515625 -0.6875,0 -1.078125,-0.546875 -1.1875,-0.6875 z m 0,0"
               style="stroke:none"
               inkscape:connector-curvature="0" />
          </symbol>
        </g>
      </defs>
      <g
         id="g6466">
        <g
           id="g6468"
           style="fill:#000000;fill-opacity:1">
          <g
             id="use6470"
             transform="translate(223.43201,134.765)">
            <path
               style="stroke:none"
               d="m 3.65625,-3.984375 0.859375,0 c 0.203125,0 0.296875,0 0.296875,-0.203125 0,-0.109375 -0.09375,-0.109375 -0.265625,-0.109375 l -0.828125,0 0.203125,-1.140625 c 0.046875,-0.203125 0.1875,-0.90625 0.25,-1.03125 0.078125,-0.1875 0.25,-0.34375 0.46875,-0.34375 0.03125,0 0.296875,0 0.484375,0.1875 -0.4375,0.03125 -0.546875,0.390625 -0.546875,0.53125 0,0.234375 0.1875,0.359375 0.375,0.359375 C 5.21875,-5.734375 5.5,-5.96875 5.5,-6.34375 c 0,-0.453125 -0.453125,-0.6875 -0.859375,-0.6875 -0.34375,0 -0.96875,0.1875 -1.265625,1.171875 -0.0625,0.203125 -0.09375,0.3125 -0.328125,1.5625 l -0.6875,0 c -0.203125,0 -0.3125,0 -0.3125,0.1875 0,0.125 0.09375,0.125 0.28125,0.125 l 0.65625,0 -0.734375,3.9375 c -0.1875,0.96875 -0.359375,1.875 -0.875,1.875 -0.046875,0 -0.28125,0 -0.484375,-0.1875 C 1.359375,1.609375 1.453125,1.25 1.453125,1.109375 1.453125,0.875 1.265625,0.75 1.078125,0.75 0.8125,0.75 0.53125,0.984375 0.53125,1.359375 c 0,0.4375 0.4375,0.6875 0.84375,0.6875 0.546875,0 0.953125,-0.59375 1.125,-0.96875 0.328125,-0.625 0.546875,-1.828125 0.5625,-1.90625 z m 0,0"
               id="path7613"
               inkscape:connector-curvature="0" />
          </g>
        </g>
        <g
           id="g6472"
           style="fill:#000000;fill-opacity:1">
          <g
             id="use6474"
             transform="translate(229.382,134.765)">
            <path
               style="stroke:none"
               d="m 3.296875,2.390625 c 0,-0.03125 0,-0.046875 -0.171875,-0.21875 C 1.890625,0.921875 1.5625,-0.96875 1.5625,-2.5 c 0,-1.734375 0.375,-3.46875 1.609375,-4.703125 0.125,-0.125 0.125,-0.140625 0.125,-0.171875 0,-0.078125 -0.03125,-0.109375 -0.09375,-0.109375 -0.109375,0 -1,0.6875 -1.59375,1.953125 -0.5,1.09375 -0.625,2.203125 -0.625,3.03125 0,0.78125 0.109375,1.984375 0.65625,3.125 C 2.25,1.84375 3.09375,2.5 3.203125,2.5 c 0.0625,0 0.09375,-0.03125 0.09375,-0.109375 z m 0,0"
               id="path7621"
               inkscape:connector-curvature="0" />
          </g>
        </g>
        <g
           id="g6476"
           style="fill:#000000;fill-opacity:1">
          <g
             id="use6478"
             transform="translate(233.256,134.765)">
            <path
               style="stroke:none"
               d="m 2.140625,-4 0,-2.921875 -1.765625,0.078125 0,0.46875 c 0.609375,0 0.6875,0 0.6875,0.390625 L 1.0625,0 1.53125,0 2.015625,-0.5625 c 0.078125,0.078125 0.5625,0.625 1.453125,0.625 1.484375,0 2.515625,-0.90625 2.515625,-2.28125 0,-1.328125 -0.9375,-2.265625 -2.390625,-2.265625 C 2.875,-4.484375 2.375,-4.203125 2.140625,-4 Z m 0.046875,3.015625 0,-2.5 C 2.46875,-3.84375 2.9375,-4.125 3.484375,-4.125 c 1.21875,0 1.21875,1.203125 1.21875,1.90625 0,0.46875 0,1.015625 -0.25,1.40625 -0.296875,0.40625 -0.75,0.515625 -1.078125,0.515625 -0.6875,0 -1.078125,-0.546875 -1.1875,-0.6875 z m 0,0"
               id="path7637"
               inkscape:connector-curvature="0" />
          </g>
        </g>
        <g
           id="g6480"
           style="fill:#000000;fill-opacity:1">
          <g
             id="use6482"
             transform="translate(239.621,134.765)">
            <path
               style="stroke:none"
               d="m 2.875,-2.5 c 0,-0.765625 -0.109375,-1.96875 -0.65625,-3.109375 -0.59375,-1.21875 -1.453125,-1.875 -1.546875,-1.875 -0.0625,0 -0.109375,0.046875 -0.109375,0.109375 0,0.03125 0,0.046875 0.1875,0.234375 0.984375,0.984375 1.546875,2.5625 1.546875,4.640625 0,1.71875 -0.359375,3.46875 -1.59375,4.71875 C 0.5625,2.34375 0.5625,2.359375 0.5625,2.390625 0.5625,2.453125 0.609375,2.5 0.671875,2.5 0.765625,2.5 1.671875,1.8125 2.25,0.546875 2.765625,-0.546875 2.875,-1.65625 2.875,-2.5 Z m 0,0"
               id="path7629"
               inkscape:connector-curvature="0" />
          </g>
        </g>
      </g>
    </g>
    <g
       ns0:text="$f(\\mathbf{c})$"
       ns0:preamble=""
       transform="translate(-70.580095,206.92966)"
       style="stroke-width:2.29999995;stroke-miterlimit:4;stroke-dasharray:none"
       id="g6838">
      <defs
         id="defs6840">
        <g
           id="g6842">
          <symbol
             overflow="visible"
             id="textext-c6d2c99a-0"
             style="overflow:visible">
            <path
               style="stroke:none"
               d=""
               id="path6845"
               inkscape:connector-curvature="0" />
          </symbol>
          <symbol
             overflow="visible"
             id="textext-c6d2c99a-1"
             style="overflow:visible">
            <path
               style="stroke:none"
               d="m 3.65625,-3.984375 0.859375,0 c 0.203125,0 0.296875,0 0.296875,-0.203125 0,-0.109375 -0.09375,-0.109375 -0.265625,-0.109375 l -0.828125,0 0.203125,-1.140625 c 0.046875,-0.203125 0.1875,-0.90625 0.25,-1.03125 0.078125,-0.1875 0.25,-0.34375 0.46875,-0.34375 0.03125,0 0.296875,0 0.484375,0.1875 -0.4375,0.03125 -0.546875,0.390625 -0.546875,0.53125 0,0.234375 0.1875,0.359375 0.375,0.359375 C 5.21875,-5.734375 5.5,-5.96875 5.5,-6.34375 c 0,-0.453125 -0.453125,-0.6875 -0.859375,-0.6875 -0.34375,0 -0.96875,0.1875 -1.265625,1.171875 -0.0625,0.203125 -0.09375,0.3125 -0.328125,1.5625 l -0.6875,0 c -0.203125,0 -0.3125,0 -0.3125,0.1875 0,0.125 0.09375,0.125 0.28125,0.125 l 0.65625,0 -0.734375,3.9375 c -0.1875,0.96875 -0.359375,1.875 -0.875,1.875 -0.046875,0 -0.28125,0 -0.484375,-0.1875 C 1.359375,1.609375 1.453125,1.25 1.453125,1.109375 1.453125,0.875 1.265625,0.75 1.078125,0.75 0.8125,0.75 0.53125,0.984375 0.53125,1.359375 c 0,0.4375 0.4375,0.6875 0.84375,0.6875 0.546875,0 0.953125,-0.59375 1.125,-0.96875 0.328125,-0.625 0.546875,-1.828125 0.5625,-1.90625 z m 0,0"
               id="path6848"
               inkscape:connector-curvature="0" />
          </symbol>
          <symbol
             overflow="visible"
             id="textext-c6d2c99a-2"
             style="overflow:visible">
            <path
               style="stroke:none"
               d=""
               id="path6851"
               inkscape:connector-curvature="0" />
          </symbol>
          <symbol
             overflow="visible"
             id="textext-c6d2c99a-3"
             style="overflow:visible">
            <path
               style="stroke:none"
               d="m 3.296875,2.390625 c 0,-0.03125 0,-0.046875 -0.171875,-0.21875 C 1.890625,0.921875 1.5625,-0.96875 1.5625,-2.5 c 0,-1.734375 0.375,-3.46875 1.609375,-4.703125 0.125,-0.125 0.125,-0.140625 0.125,-0.171875 0,-0.078125 -0.03125,-0.109375 -0.09375,-0.109375 -0.109375,0 -1,0.6875 -1.59375,1.953125 -0.5,1.09375 -0.625,2.203125 -0.625,3.03125 0,0.78125 0.109375,1.984375 0.65625,3.125 C 2.25,1.84375 3.09375,2.5 3.203125,2.5 c 0.0625,0 0.09375,-0.03125 0.09375,-0.109375 z m 0,0"
               id="path6854"
               inkscape:connector-curvature="0" />
          </symbol>
          <symbol
             overflow="visible"
             id="textext-c6d2c99a-4"
             style="overflow:visible">
            <path
               style="stroke:none"
               d="m 2.875,-2.5 c 0,-0.765625 -0.109375,-1.96875 -0.65625,-3.109375 -0.59375,-1.21875 -1.453125,-1.875 -1.546875,-1.875 -0.0625,0 -0.109375,0.046875 -0.109375,0.109375 0,0.03125 0,0.046875 0.1875,0.234375 0.984375,0.984375 1.546875,2.5625 1.546875,4.640625 0,1.71875 -0.359375,3.46875 -1.59375,4.71875 C 0.5625,2.34375 0.5625,2.359375 0.5625,2.390625 0.5625,2.453125 0.609375,2.5 0.671875,2.5 0.765625,2.5 1.671875,1.8125 2.25,0.546875 2.765625,-0.546875 2.875,-1.65625 2.875,-2.5 Z m 0,0"
               id="path6857"
               inkscape:connector-curvature="0" />
          </symbol>
          <symbol
             overflow="visible"
             id="textext-c6d2c99a-5"
             style="overflow:visible">
            <path
               style="stroke:none"
               d=""
               id="path6860"
               inkscape:connector-curvature="0" />
          </symbol>
          <symbol
             overflow="visible"
             id="textext-c6d2c99a-6"
             style="overflow:visible">
            <path
               style="stroke:none"
               d="m 3.59375,-4.0625 c -0.1875,0.171875 -0.203125,0.375 -0.203125,0.46875 0,0.4375 0.34375,0.625 0.609375,0.625 0.3125,0 0.640625,-0.21875 0.640625,-0.625 0,-0.859375 -1.15625,-0.921875 -1.734375,-0.921875 -1.796875,0 -2.53125,1.140625 -2.53125,2.296875 0,1.328125 0.9375,2.28125 2.46875,2.28125 1.625,0 1.921875,-1.15625 1.921875,-1.234375 C 4.765625,-1.3125 4.625,-1.3125 4.53125,-1.3125 c -0.1875,0 -0.1875,0.03125 -0.25,0.15625 -0.25,0.625 -0.734375,0.8125 -1.234375,0.8125 -1.390625,0 -1.390625,-1.453125 -1.390625,-1.921875 0,-0.5625 0,-1.84375 1.28125,-1.84375 0.359375,0 0.515625,0.015625 0.65625,0.046875 z m 0,0"
               id="path6863"
               inkscape:connector-curvature="0" />
          </symbol>
        </g>
      </defs>
      <g
         id="textext-c6d2c99a-7">
        <g
           style="fill:#000000;fill-opacity:1"
           id="g6866">
          <use
             xlink:href="#textext-c6d2c99a-1"
             x="223.43201"
             y="134.765"
             id="use6868"
             width="100%"
             height="100%" />
        </g>
        <g
           style="fill:#000000;fill-opacity:1"
           id="g6870">
          <use
             xlink:href="#textext-c6d2c99a-3"
             x="229.382"
             y="134.765"
             id="use6872"
             width="100%"
             height="100%" />
        </g>
        <g
           style="fill:#000000;fill-opacity:1"
           id="g6874">
          <use
             xlink:href="#textext-c6d2c99a-6"
             x="233.256"
             y="134.765"
             id="use6876"
             width="100%"
             height="100%" />
        </g>
        <g
           style="fill:#000000;fill-opacity:1"
           id="g6878">
          <use
             xlink:href="#textext-c6d2c99a-4"
             x="238.34801"
             y="134.765"
             id="use6880"
             width="100%"
             height="100%" />
        </g>
      </g>
    </g>
    <g
       id="g7711"
       transform="translate(686.41013,-178.97932)">
      <g
         id="g7774"
         transform="matrix(0.89843413,0,0,1,-94.760024,39.143411)"
         style="stroke-width:0.5275054;stroke-miterlimit:4;stroke-dasharray:none">
        <path
           sodipodi:nodetypes="cc"
           inkscape:connector-curvature="0"
           id="path7727"
           d="m -463.05235,461.09101 c 0,-22.5 47.5,0 62.14286,-23.57143"
           style="fill:none;fill-rule:evenodd;stroke:#000000;stroke-width:0.5275054;stroke-linecap:round;stroke-linejoin:miter;stroke-miterlimit:4;stroke-dasharray:none;stroke-opacity:1" />
        <path
           sodipodi:nodetypes="cc"
           inkscape:connector-curvature="0"
           id="path7727-1"
           d="m -338.74295,461.1035 c 0,-22.5 -47.5,0 -62.14286,-23.57143"
           style="fill:none;fill-rule:evenodd;stroke:#000000;stroke-width:0.5275054;stroke-linecap:round;stroke-linejoin:round;stroke-miterlimit:4;stroke-dasharray:none;stroke-opacity:1" />
      </g>
      <text
         xml:space="preserve"
         style="font-style:normal;font-weight:normal;font-size:6.94011164px;line-height:125%;font-family:sans-serif;letter-spacing:0px;word-spacing:0px;fill:#000000;fill-opacity:1;stroke:none;stroke-width:1px;stroke-linecap:butt;stroke-linejoin:miter;stroke-opacity:1"
         x="-478.60168"
         y="472.63446"
         id="text7820"
         sodipodi:linespacing="125%"><tspan
           sodipodi:role="line"
           id="tspan7822"
           x="-478.60168"
           y="472.63446">One simplex</tspan></text>
    </g>
  </g>
</svg>
